<svg id="Layer_1" data-name="Layer 1" xmlns="http://www.w3.org/2000/svg" version="1.1" viewBox="0 0 2000.02 2000.02"><defs><style>.cls-1{fill-rule:evenodd;fill:var(--svg-fill-color);stroke-width:0}</style></defs><path class="cls-1" d="M1473.82 372.48c-275.14 0-498.18 215.97-498.18 498.01s220.1 498.01 498.18 498.01S1972 1149 1972 870.49s-223.04-498.01-498.18-498.01Zm0 900.91c-162.88 0-294.92-181.12-294.92-404.54s132.04-404.54 294.92-404.54 294.92 181.12 294.92 404.54-132.04 404.54-294.92 404.54Z"/><path class="cls-1" d="M1006.24 372.48c-275.14 0-498.18 215.97-498.18 498.01s220.1 498.01 498.18 498.01 498.18-219.5 498.18-498.01-223.04-498.01-498.18-498.01Zm0 900.91c-162.88 0-294.92-181.12-294.92-404.54s132.04-404.54 294.92-404.54 294.92 181.12 294.92 404.54-132.04 404.54-294.92 404.54Z"/><path class="cls-1" d="M45.67 611.49s24.82-4.32 61.86-4.32c0 0 26.97-54.67 63.66-54.67h244.2s-67.25 95.49-168.31 220.82C146.02 898.66 88.84 983.53 75.53 1007.27c53.59-8.99 112.57-15.82 160.04-15.82s189.66 15.13 189.66 153.71-134.47 266.19-178.37 305.29c-43.91 39.11-110.45 87.13-218.85 107.71v68.61c61.74 4.12 210.62-5.49 343.71-122.12 133.09-116.63 224.34-240.81 253.15-378.7 28.81-137.9-30.87-288.83-157.11-303.24-93.99-9.6-119.37-16.47-125.55-20.58 0 0 269.62-322.45 346.46-428.1H62.99c-1.37 66.55-21.6 167.54-17.32 237.45Z"/></svg>