<svg id="Layer_1" data-name="Layer 1" xmlns="http://www.w3.org/2000/svg" version="1.1" viewBox="0 0 2000.02 2000.02"><defs><style>.cls-1{fill-rule:evenodd;fill:var(--svg-fill-color);stroke-width:0}</style></defs><path class="cls-1" d="M460.78 916.05c6.88-3.44 6.31-18.92 19.78-27.23 13.47-8.31 14.33 0 23.79-6.02 9.46-6.02 13.34-13.24 21.15-15.51 0 0-4.94 25.52-10.7 51.03-5.76 25.52-11.94 69.14 8.23 72.43 20.17 3.29 32.51-1.23 37.45-23.46 4.94-22.22 13.17-69.14 29.22-141.16 16.05-72.02 35.81-156.8 52.27-203.72 16.46-46.92 32.95-84.2 33.52-89.64.57-5.45-5.45-8.03-16.34-5.45-10.89 2.58-34.69-4.3-37.55 16.05-2.87 20.35-9.17 41.28-19.78 62.21-10.61 20.93-46.15 91.16-89.16 164.84-43 73.68-47.87 93.17-58.19 112.38-10.32 19.21-19.49 23.22-18.63 28.38.86 5.16 18.06 8.31 24.94 4.87Zm35.06-67.77c8.18-15.62 11.9-20.64 17.48-34.96s8-18.6 13.95-30.31 16.74-28.08 22.69-42.21c5.95-14.13 14.5-41.1 23.62-48.16 0 0-17.11 40.91-21.01 61.74-3.91 20.83-17.67 40.91-19.34 61.55-1.67 20.64-.74 18.97-12.64 28.82-11.9 9.86-32.91 19.15-24.73 3.53ZM857.3 685.57c5.7-5.4 52.76-71.35 65.36-96.83 12.59-25.48-17.09-25.48-40.47-20.69-23.38 4.8-61.46 23.08-61.46 23.08s38.67-41.37 62.06-75.85c23.38-34.48 23.98-47.67-3.9-53.66-27.88-6-100.13 29.68-137.01 56.96-36.88 27.28-56.66 36.58-56.66 36.58s-3 5.1 16.79 10.19c19.79 5.1 30.28 7.79 33.58 6.9 3.3-.9 14.99-22.49 10.79-4.2-4.2 18.29-11.39 53.36-13.79 59.96-2.4 6.6-38.97 23.08-38.97 23.08s5.4 5.1 2.7 10.19c-2.7 5.1 2.1 4.5 9.89 7.79 7.79 3.3 5.4 12.86 1.8 26.37-3.6 13.51-6 24-20.69 73.47-14.69 49.47-15.89 63.86-15.89 63.86l-16.79 1.8s-.6 12.59 25.18 18.29c25.78 5.7 31.78 3.77 31.78 3.77v-4.07s24.88-19.19 44.37-36.28 95.04-115.72 95.34-117.22c.3-1.5.3-8.09 6-13.49Zm-62.36-170.59s32.37-22.19 46.17-32.08c13.79-9.89 18.59 0 7.49 26.68-11.09 26.68-60.86 79.15-72.25 83.04 0 0 20.69-59.96 20.69-67.75s-2.09-9.89-2.09-9.89Zm-23.69 242.84c-27.88 35.68-56.66 48.57-56.66 48.57s19.19-51.57 25.18-75.25c6-23.68 8.39-54.86 8.39-54.86s77.05-62.66 94.44-79.45c17.39-16.79 43.17-18.89 28.18 9.29-14.99 28.18-23.68 45.87-32.68 61.16-8.99 15.29-38.97 54.86-66.85 90.54ZM1237.2 584.5c13.89-48.1 30.79-109.63 30.79-123.55s-22.64-6.67-33.21-1.24-24.15 2.77-35.02 1.24c-12.71-1.8-19.26 5.04-23.65 15.93-7.82 6.24-22.4 17.67-40.59 31.05-27.55 20.25-34.66 23.53-34.66 23.53s-.55-6.38 1.28-10.58c1.82-4.2-12.95-10.95-31.56-1.64-11.37 5.69-16.67 9.82-18.93 15.09-5.54 1.76-12.87 5.15-22.12 11.55-24.26 16.78-50.9 31.56-55.28 32.29-1.21.2-3.57.91-6.1 1.82-2.63-12.63-19.35-12.69-17.92-7.45 1.7 6.23-11.01 23.51-19.03 36.83-8.03 13.32-32.66 68.23-37.4 88.12-4.74 19.89-12.77 23.17-13.68 37.03-.91 13.86-3.47 21.16 23.72 24.26 27.18 3.1 35.57-12.41 48.16-37.22 12.59-24.81 17.7-29.74 29.01-44.33 11.31-14.59 12.41-37.4 23.53-50.72 11.13-13.32 9.85-24.08 6.93-36.12s4.93-15.14 23.17-30.47c5.93-4.98 11.18-9.56 15.6-13.49.64 12.76-12.68 50.34-25.81 86.1-13.14 35.76-14.96 50.9 0 56.37 14.96 5.47 31.2 3.47 36.12 0 4.93-3.47 27.18-49.62 36.67-76.8 9.49-27.18 18.61-66.04 22.44-74.25 3.83-8.21 37.4-34.11 47.43-37.76.64-.23 1.27-.56 1.87-.96-8.23 20.83-27.78 55.97-33.5 82.92-6.64 31.32 14.19 30.72 30.79 28.91 16.6-1.81 29.59-22.34 33.51-22.34s1.21 8.45-9.36 40.76c-10.57 32.3-17.07 72.46-22.57 77.29-5.5 4.83-4.9-4.53-10.33-3.62-5.43.91-23.25 19.93-46.79 51.62-23.55 31.7-29.59 73.96-22.94 87.85 6.64 13.89 60.38 10.26 72.76-9.66 12.38-19.93 28.68-82.72 42.27-110.19 13.59-27.47 20.53-90.06 34.42-138.17Zm-257.29 47.67c-4.93 9.12-46.47 79.78-58.46 95.97-11.99 16.19-17.09 9.89 2.1-41.67 17.65-47.43 40.07-79.35 44.26-97.5 1.68 4.05-2.44 11.06 1.34 10.37 5.29-.96 11.49 1.46 10.76 9.85-.73 8.39 4.93 13.86 0 22.99Zm113.29-68.96s-11.86 29.92-26.45 63.67-15.69 24.63-14.23 15.69c1.46-8.94 20.61-56.01 29.92-74.8 9.3-18.79 11.68-11.86 10.76-4.56Zm35.78 250.09c-6.91.2-7.92-21.74 4.88-46.11 12.8-24.38 20.7-32 20.3-25.14 0 0-18.27 71.05-25.18 71.25Zm69.27-277.81c-22.34 42.57-29.59 52.23-34.11 48-4.53-4.23 21.43-57.96 36.83-83.32 15.4-25.36 19.93-16.78 18.72-12.08 0 0 .91 4.83-21.43 47.4Zm73.5 45.03c25.24 4.9 41.65-.98 50.23-19.6 7.74-16.8 23.67-36.16 29.84-44.65 1.11 2.79 2.36 5.07 3.56 7.02 6.16 9.99 3.46 21.64 24.47 23.93 21.02 2.29 32.88-1.46 32.25-8.11-.62-6.66-16.44-13.11-21.22-15.4-4.79-2.29-10.2-6.76-9.36-24.92.83-18.16 8.65-30.78 13.22-36.13 0 0 34.01-39.04 45.66-61.1 11.65-22.06 14.98-31.21 10.4-37.04-4.58-5.83-20.39-2.71-32.46-1.87-12.07.83-30.79-10.2-34.75 13.32-3.95 23.51-3.33 7.28-22.68 63.25-9.46 27.37-12.45 45.65-12.33 58.39-13.32 16.42-49.48 60.59-53.19 60.59-4.55 0 2.97-37.79 14.52-74.18 11.55-36.39 16.97-52.31 16.97-54.76s-3.15-7-16.27-12.07-15.22 1.22-17.49 12.07c-2.27 10.85-13.96 29.22-25.14 78.22-11.19 49-21.48 68.11 3.76 73.01Zm143.33-186.94c11.52-15.93 12.5-9.07 6.37 7.6-6.13 16.66-19.36 30.63-19.36 30.63s1.47-22.3 12.99-38.22Zm-115.28-24.26s23.36 8.34 39.08 8.34 15.3-8.34 8.9-14.32-22.81-10.43-31.15-4.73c-8.34 5.7-26.56 5.28-16.83 10.71Zm-862.2 743.89c-1.62-34.51-2.01-36.12-1.81-49.06.19-12.94-2.23-30.46-17.06-40.44-14.83-9.97-35.05-8.36-35.05-8.36s2.7 41.78 5.66 54.99c2.97 13.21 9.7 51.76 4.04 108.91-5.66 57.15-12.4 59.04-14.02 82.76-1.62 23.72-16.71 35.58-29.92 76.02s-35.05 88.96-64.16 142.07-52.3 96.78-58.23 96.51c-5.93-.27 8.41-22.37 5.82-29.92-2.59-7.55 1.73-22.64 6.58-40.98 4.85-18.33 28.04-68.47 28.84-91.12.81-22.64 8.63-50.95 16.71-71.98 8.09-21.03 19.95-72.25 33.16-105.41 13.21-33.16 19.41-50.68 19.41-59.04s-10.78-7.82-10.78-7.82l17.79-40.44-12.97-12.83s-22.63 58.09-22.63 61.48-35.46 10.18-37.34 26.4c-1.89 16.22-16.22 48.66-32.82 75.82-16.6 27.16-41.87 78.46-60.35 109.01-18.48 30.55-36.59 56.96-40.74 56.96s7.54-13.58 15.09-30.55c7.54-16.97-10.56 3.02-10.56 3.02s10.94-39.61 12.45-43.76c1.51-4.15 18.86-17.35 18.86-21.88s-6.79-4.9-6.79-4.9 9.43-12.45 12.07-29.42c2.64-16.97 7.54-24.14 1.89-22.26-5.66 1.89-9.05 4.9-9.05 4.9s7.54-14.71 11.69-19.99c4.15-5.28 17.73-56.58 31.31-90.53 13.58-33.95 44.89-102.98 46.4-118.07 1.51-15.09-21.5-15.09-36.59-7.92-15.09 7.17-17.35 20.75-36.59 78.84-19.24 58.09-46.77 156.54-53.94 172.38-7.17 15.84-16.6 47.53-17.73 59.22-1.13 11.69-12.07 2.64-19.24 36.97-7.17 34.33-10.94 51.3-22.26 76.95-11.32 25.65-18.86 33.19-19.24 48.28-.38 15.09-7.54 15.47-8.3 29.42-.75 13.96-7.54 16.97-9.81 26.4-2.26 9.43-24.52 34.33 8.68 45.64 33.19 11.32 52.81 1.13 67.14-27.54 14.33-28.67 41.87-97.7 52.05-124.86 10.18-27.16 28.67-72.8 42.25-101.47 13.58-28.67 23.01-41.49 23.01-41.49s-19.24 66.39-28.67 96.94c-9.43 30.55-14.68 81.1-22.05 105.99-7.37 24.9-18.27 68.59-6.41 72.1 11.86 3.5 24.26 3.77 31.27 9.97 7.01 6.2 16.44-1.08 27.5-15.1 11.05-14.02 52.84-61.73 59.31-80.33 6.47-18.6 22.64-43.13 36.12-69.82 13.48-26.69 48.79-93.81 62-121.58 13.21-27.77 18.06-61.73 28.04-98.4 9.97-36.66 21.57-96.24 19.95-130.75Zm92.46-4.18c-5.66 11.32-17.52 21.03-25.61 22.64-8.09 1.62-12.94 11.05-5.66 11.05 0 0 9.68-1.36 14.83 7.85 5.15 9.21 14.05 5.31 15.77.94 1.72-4.37 9.84-3.12 13.34-8.78 3.5-5.66 13.48-32.08 13.21-37.47-.27-5.39-20.22-7.55-25.88 3.77Zm-.41 67.17c-6.08.96-10.58 1.38-13.54 1.56-3.4.2-6.78.84-9.91 2.2-14.26 6.17-18.28 15.74-18.47 20.98-.21 5.87-20.33 20.96-19.7 29.76.63 8.8 2.72 2.52-10.06 44.02-12.79 41.5-27.88 47.16-28.93 78.6-1.05 31.44-17.4 53.66-15.3 74.62 2.1 20.96 3.98 32.7 2.52 33.12-1.47.42 3.14 10.06 23.69 5.45 20.54-4.61 35-11.11 40.66-26.62 5.66-15.51 1.26-24.52 1.68-32.07.42-7.55 10.06-19.07 9.85-28.09-.21-9.01 1.05-31.44 5.66-35.84 4.61-4.4 7.13-15.93 10.27-31.02l3.14-15.09s-14.04 14.67-14.46 13.83c-.42-.84.63-4.61 10.9-23.48 10.27-18.86 12.16-35.21 27.67-65.19 15.51-29.97 17.61-32.7 17.61-39.62s-11.32-9.01-23.27-7.13Z"/><path class="cls-1" d="M694.4 1077.05c-12.58 6.71-7.13-6.71 0-27.25s28.72-60.16 33.12-71.68c4.4-11.53-1.68-22.85-17.61-19.07-15.93 3.77-31.86 8.38-34.37 15.09-2.51 6.71-3.77 20.96-10.48 46.74-6.71 25.78-28.72 85.94-36.26 95.79-7.55 9.85-15.09 11.74-36.26 22.22-21.17 10.48-36.59 11.74-36.59 11.74-7.97-.9 17.75 17 29.31 17s27.19-10.14 27.19-8.35-12.88 54.73-17.29 73.57c-4.41 18.84-12.52 38.4-15.74 40.66-3.22 2.27-7.75 5.37-3.93 9.9s1.12 13.94-1.61 23.79c-2.72 9.85-3.35 12.79-7.76 13-4.4.21-7.13 3.35-9.43 13.21-2.31 9.85 2.31 3.56 6.29-3.75 3.98-7.31 6.71-4.42 5.66 9.41-1.05 13.83-7.76 12.37-9.85 15.51-1.06 1.59-1.31 4.52-1.31 7.03-.92-1.62-1.53-2.84-1.53-2.84s-.72 23.89 1.37 36.89c2.1 13 16.77 14.25 37.31 16.35 20.54 2.1 28.93-15.3 30.39-24.52 1.47-9.22 14.04-14.67 13.41-25.99-.63-11.32-2.93-24.94-6.92-24.52-3.98.42-1.26 11.53-10.06 19.91s-10.9 11.95-10.06-8.17c.84-20.12 12.16-55.76 17.82-70.85 5.66-15.09 16.98-71.48 21.8-99.98 4.82-28.51 15.3-37.1 19.7-49.35 4.4-12.25 9.22-7.25 25.57-24.43 16.35-17.19 37.1-42.13 37.1-42.13l-4.48-7.5s-21.93 15.88-34.51 22.59Zm-130.79 292.61c-1.54-.92-3.39-3.54-4.9-5.99 1.4-3.36 3.99-8.95 5.32-8.06 1.89 1.26 2.72 15.93-.42 14.04Zm386.91-298.93c-1.24-16.08 0-28.92 7.73-45.16 7.73-16.24 4.79-17.32 8.97-25.67 4.18-8.35 1.08-10.36 5.88-16.08 4.79-5.72 9.74-11.44 3.09-12.37-6.65-.93 14.38-27.22 15.46-33.87 1.08-6.65 6.96-32.17 10.98-51.81 4.02-19.64 12.99-42.99 18.25-54.59 5.26-11.6 1.24-21.5-10.05-16.08-11.29 5.41-29.54 3.71-36.34 7.73-6.8 4.02-8.04 13.61-8.81 25.21-.77 11.6-8.51 39.43-15.62 66.96-7.11 27.53-21.19 52.89-21.96 61.24-.77 8.35 3.25 10.52-1.86 18.71-5.1 8.2-11.44 16.39-11.6 23.97-.15 7.58-8.51 11.91-8.51 22.27s6.34-5.88 6.34-5.88 1.86 24.12-9.59 24.28c-11.44.15-28.45.46-30.93 9.43-2.47 8.97-17.78 17.01-29.38 35.72-11.6 18.71-33.25 55.98-33.09 57.53.15 1.55 3.09 9.28-4.48 18.87-7.58 9.59-12.06 14.07-11.13 16.08.93 2.01 7.89-7.73 9.9-6.03 2.01 1.7-3.03 6.34-10.02 17.78-6.99 11.44-6.53 16.86-8.23 21.5s7.58-5.26 7.27 2.78c-.31 8.04-4.79 7.42-14.07 19.02-9.28 11.6-4.64 11.91-6.03 22.89-1.39 10.98-4.48 12.53-1.55 25.05 2.94 12.53 11.6 14.23 20.88 14.23s15 4.18 24.9-.62c9.9-4.79 15.77-17.63 22.73-32.48 6.96-14.85 10.83-18.56 16.86-36.96 6.03-18.4 9.98-17.89 9.94-10.41 0 0-8.86 17.22-6.07 21.39 2.78 4.18 3.99 4.95 2.77 12.99-1.22 8.04 1.1 16.08 1.1 23.51s7.42 21.65 28.3 21.34c20.88-.31 32.17-10.67 31.55-22.89-.62-12.22 3.4-22.73 3.25-34.02-.15-11.29-2.94-13.25-2.01-22.32.93-9.07 2.01-12.16-.31-18.04-2.32-5.88 5.41-19.18.77-29.23-4.64-10.05 1.24-12.68 3.4-22.58 2.16-9.9-.15-21.81 7.58-27.68 7.73-5.88 8.35-21.03 4.33-25.05s10.67-24.59 9.43-40.67Zm-73 179.48c.77 9.52-11.44 16.15-5.72 8.07 5.72-8.07-4.79-5.53-3.87-9.55.93-4.02.53-14.33 9.43-17.17 1.92-.61-.62 9.12.15 18.65Zm2.79 39.5c-3.59 3.84-7.58 8.51-10.67 6.34-3.09-2.16-.46-12.37 5.34-13.3 5.8-.93 8.03 4.08 5.34 6.96Zm7.62-177.45c-3.29 16.23-22.15 48.69-30.71 67.99-8.55 19.3-33.75 71.25-35.09 73.26-7.89 11.79-8.99.44-5.48-19.52s15.13-69.75 37.73-106.6c22.59-36.85 47.38-49.79 47.38-49.79s-10.53 18.42-13.82 34.65Zm231.23-180.42c-6.18 4.5-14.42 4.87-21.73 5.99-7.31 1.12-13.68 14.99-17.98 15.55-4.31.56-24.92 0-34.28 3.37-9.37 3.37-18.36 17.98-18.36 17.98s7.31-4.31 7.31-2.25-15.74 24.35-21.92 27.73c-6.18 3.37-1.5 8.24-1.5 20.23s-14.61 44.96-20.23 54.7c-5.62 9.74-13.11 22.67-13.11 23.79s7.87 2.06 0 13.11c-7.87 11.05-4.31 11.8-8.8 20.98-4.5 9.18-8.43 12.93-8.43 20.23s-.37 8.43-2.25 17.23c-1.87 8.8-6.93 14.99-5.06 25.29 1.87 10.3-2.06 31.85 14.99 30.54 17.05-1.31 16.67-2.06 28.29-2.06s19.11-12.36 25.66-18.55c6.56-6.18 18.73-30.35 18.92-41.4.19-11.05 8.8-37.28 10.12-40.84 1.31-3.56 7.41-4.81 6.74-1.69 0 0-5.25 24.35-5.25 24.92s7.49-2.44 7.68 1.69c.19 4.12-7.49 8.43-7.68 16.86-.19 8.43-1.12 16.86-1.12 16.86s7.12-6.18 7.12 0-10.3 4.31-11.8 10.49c-1.5 6.18-12.55 13.49-12.55 15.74s9.55-5.62 9.55 1.87 1.69 19.67 4.31 26.79c2.62 7.12 10.12 16.86 14.05 16.86s7.87-7.54 9.93-7.14c2.06.4 14.99 7.52 26.04-4.47 11.05-11.99 15.36-27.91 7.31-38.4-8.06-10.49-13.3-25.85-9.93-51.52 3.37-25.67 8.43-45.34 10.3-71.19 1.87-25.85 6.74-38.78 11.05-51.14 4.31-12.36 14.42-42.53 19.67-58.26 5.25-15.74 7.31-32.97 6.18-38.59-1.12-5.62-17.05-5.81-23.23-1.31Zm-63.39 292.58c-.41.78-1.02 1.43-1.67 2.02-.25.23-.54.46-.87.49-.36.04-.7-.16-1.01-.34-.41-.24-.84-.51-1.04-.95-.15-.33-.14-.71-.13-1.07.04-1.26-.41-3.27.86-3.89 1.01-.5 3.38-.51 4.06.52.13.2.21.44.26.67.17.86-.04 1.77-.45 2.54Zm3.78 10.73c-.99-.27-1.94-.66-2.83-1.16-.14-.08-.29-.17-.36-.32-.06-.13-.05-.28-.04-.43.2-1.8 1.88-6.05 4.16-5.9 3.06.21 3.1 4.6 2.2 6.59-.18.4-.41.8-.76 1.06-.66.49-1.58.37-2.37.16Zm6.95 11.53c-1.21 1.14-3.12 1.42-4.66.78-.31-.13-.62-.31-.75-.61-.07-.17-.08-.35-.09-.54-.08-1.67-.64-5.11 1.32-5.94 1.56-.66 4.12.34 4.93 1.74.83 1.44.46 3.43-.75 4.57Zm4.97-210.33c-6.53 27.3-20.17 54-20.17 54s-41.24 76.87-45.99 77.6c-4.75.73 6.82-62.17 13.35-69.59 6.53-7.42 11.27-24.33 23.74-50.44 12.46-26.11 30.26-57.56 30.26-57.56s5.34 18.69-1.19 45.99Zm387.32-214.91c-.49-4.37-.97-5.83-6.56-3.4-5.58 2.43-20.4 10.68-20.4 10.68s6.07-33.02 6.56-54.87c.49-21.85 24.52-90.57 31.81-114.6 7.28-24.04 13.35-35.45 13.35-39.58s-6.31-13.35-21.37-15.3c-15.05-1.94-24.52-3.64-25.74 2.43-1.21 6.07-21.37 61.91-22.34 70.9-.97 8.98-3.49 4.54-4.67 24.65-1.17 20.11-4.1 13.28-4.1 26.16s-2.73 11.71-3.12 27.34c-.39 15.62 1.76 13.08-.39 20.7-2.15 7.61-7.81 4.49-8.01 11.52-.2 7.03-1.56 10.93-1.56 10.93s7.22-8.79 8.2-5.86c.98 2.93 1.76 14.64-6.83 20.5-8.59 5.86-3.32 14.64.59 18.94 3.91 4.3-6.83 4.3-7.03 11.71-.2 7.42-1.76 32.61-7.81 36.9-6.05 4.3-45.49 41.2-66.19 59.36-20.7 18.16-32.8 26.36-36.12 26.36s-.2-13.47 5.08-32.61c5.27-19.13 16.99-59.55 16.99-63.85s3.71-9.57 2.15-21.09 16.21-50.57 22.26-64.24c6.05-13.67 21.09-47.84 22.45-68.14 1.37-20.31 1.56-30.65-13.28-37.49-14.84-6.83-25.19-2.93-25.19 13.28s-19.33 57.6-26.16 99.38c-6.83 41.78-10.93 53.69-10.93 66.97s-12.89 17.96-13.28 28.51c-.39 10.54-4.69 25.38-3.51 25.38s5.66-2.15.59 5.86c-5.08 8.01-8.4 8.4-9.76 29.48-1.37 21.09-13.67 31.63-13.67 46.27s-4.1 27.73-10.15 37.49c-6.05 9.76-6.05 31.83-6.05 46.27s-1.56 31.44-4.3 33.19c-2.73 1.76-8.98.2-4.88 12.11 4.1 11.91-2.34 20.7-2.34 28.9s-13.08 39.05-14.25 59.94-.2 22.06-1.17 28.51c-.98 6.44 7.42 10.74 24.21 9.76 16.79-.98 24.99-7.22 33.97-14.64 8.98-7.42 7.95-11.02 5.47-15.81-7.93-15.35-3.74-51.49 2.8-82.96 6.54-31.46 13.84-89.42 13.6-104.23-.24-14.81 1.46-26.22 3.88-31.56 2.43-5.34 22.1-4.86 32.78-15.78 10.68-10.93 60.46-56.82 62.4-54.39 1.94 2.43-5.34 36.66-5.34 39.58s5.58 1.94.73 9.23c-4.86 7.28-3.88 8.01-4.86 20.64-.97 12.63-7.04 22.82-4.61 34.72 2.43 11.9-2.43 22.82-6.07 37.88-3.64 15.05-3.88 41.03-5.58 52.45-1.7 11.41-14.33 14.33-13.11 33.75s-.24 28.41-.24 35.93 22.1 5.1 31.32-1.7c9.23-6.8 10.93-25.01 20.15-39.58 9.23-14.57 19.18-72.11 19.91-101.01.73-28.89 14.57-64.83 18.21-110.23 3.64-45.4 14.33-88.78 14.33-92.22s27.68-25.05 27.19-29.42Zm-69.18 123.96-1.62 4.32c-.28.73-.56 1.48-1.05 2.08s-1.24 1.06-2.02 1c-.35-.03-.71-.17-.92-.45-.17-.23-.24-.52-.29-.8-.39-1.97-.79-3.97-.66-5.97.19-2.97 1.49-6.47 3.21-8.91 1.07-1.51 5.37-2.17 5.39.37.02 2.88-1.01 5.66-2.03 8.35Zm5.74-34.26c-.73 2.18-1.96 4.18-3.57 5.82-.65.67-1.39 1.29-2.27 1.59-.88.3-1.94.23-2.65-.37-.87-.74-1-2.02-.97-3.16.07-3.22.89-6.42 2.34-9.29.7-1.39 1.55-2.84 2.61-4 .97-1.05 2.44-1.26 3.84-1.43.52-.06 1.13-.05 1.44.37.18.25.2.58.21.89.1 3.23.06 6.52-.98 9.58Zm15.13-95.27c-.03 2.44-.1 4.89-.52 7.3-.24 1.41-.62 2.83-1.42 4.01-.8 1.18-2.09 2.11-3.52 2.17-1.54.07-3-.89-3.85-2.19-.85-1.29-1.15-2.87-1.23-4.41-.09-1.98.18-3.97.8-5.85.53-1.6 1.3-3.1 2.06-4.59 1.04-2.02 2.09-3.98 2.85-6.12.48-1.33.61-2.33 2.17-2.61 4.23-.77 2.68 9.69 2.64 12.29Zm2.04-31.47c0 .58-.02 1.17-.16 1.73-.17.66-.5 1.26-.85 1.84-.47.79-.98 1.59-1.74 2.12s-1.82.72-2.6.23c-.78-.48-1.07-1.45-1.25-2.35-.4-2-.52-4.05-.37-6.07.06-.84.18-1.68.5-2.46.75-1.8 3.43-5.75 5.72-3.85 1.86 1.54.77 6.67.74 8.8Zm10.93-47.36c-.33 1.33-.98 2.56-1.65 3.76-.17.3-.35.61-.61.85-.69.62-1.73.56-2.65.41-2.13-.34-4.5-1.15-5.34-3.14-.25-.6-.34-1.25-.35-1.9-.03-1.93.66-3.91 2.06-5.24 3.98-3.77 9.77.25 8.53 5.27Zm361.12-251.58c0-13.02 8.96-15.96 8.82-21.7-.14-5.74-25.9-6.3-36.97 5.88-11.06 12.18-9.52 25.34-9.52 38.79s-8.26 22.96-9.94 47.19c-1.68 24.22-10.92 23.66-14.56 64.83-3.64 41.17-5.6 54.47-5.6 54.47s-23.34-3.78-32.47 13.16c-3 5.58-4.16 8.64-4.69 11.6-5.71 4.96-15.75 13.91-25.15 23.46-14.17 14.38-29.41 27.91-28.12 19.02 1.29-8.89.86-17.08-9.45-16.87-10.31.21-26.62 8.37-47.23 22.76-20.61 14.38-51.75 40.79-51.75 40.79s-11.15-5.37-25.1-5.98-14.6 2.33-14.81 11.99c-.21 9.66-1.93 24.47-7.73 35.64-5.8 11.16-7.51 42.51-12.67 53.03-5.15 10.52-4.29 25.55-4.29 30.06s-12.24 27.27-8.16 31.77c4.08 4.51 3.01 6.01 1.93 7.47-1.07 1.46-8.16 10.56-3.65 22.8s3.86 13.74 17.6 18.68c13.74 4.94 28.77 2.15 36.71-2.36 7.94-4.51 20.4-28.55 25.33-48.95 4.94-20.4 8.37-48.74 12.67-75.14 4.29-26.41 2.36-65.7 2.36-65.7s26.34-33.29 34.04-42.93c7.71-9.63 11.73-7.36 12.61-.35.88 7.01-4.2 22.24-5.25 41.16-1.05 18.92-9.46 44.14-13.14 55.35-3.68 11.21-5.25 20.14-4.73 29.06.53 8.91-5.6 14.21-5.08 23.66.53 9.46 1.05 28.02 6.56 37.48 5.51 9.46 16.03 5.43 28.99 5.43s25.05-16.99 29.07-31c4.03-14.01 4.03-19.44 8.58-50.97 4.55-31.53 4.2-37.48 10.33-64.8s.35-25.92-2.98-35.38-2.2-15.44 4.67-20.59 15.89-18.25 25.12-30.27c4.73-6.16 9.17-11.86 12.39-15.97-.5 5.47 0 12.62-5.24 35.07-8.96 38.37-15.96 52.93-22.4 89.76-6.44 36.83-5.46 47.75-5.46 54.89s1.01 14.7-.05 23.38c-1.07 8.68-4.15 6.72-1.63 12.04 2.52 5.32 11.9 10.08 22.12 10.08s12.08-1.54 17.66-10.78c5.58-9.24 7.91-11.34 7.3-7.7 0 0-5.86 8.58.57 12.53 6.43 3.95 2.18 15.61 14.23 15.19 12.04-.42 11.62-5.6 20.3-6.02 8.68-.42 6.44-3.22 13.02-3.5 6.58-.28 3.78-6.72 6.44-6.44 2.66.28 6.3-1.4 2.52-12.88s.56-21.7.56-31.51-5.46-81.91-5.46-88.64-3.08-15.54-1.68-24.5c1.4-8.96 6.72-31.79 11.06-43.13 4.34-11.34-2.24-2.8-2.24-15.54s.56-13.3.14-16.24c-.42-2.94 7.7-12.88 4.9-14.14-2.8-1.26.28-10.5 2.66-16.94 2.38-6.44-2.1-8.4.7-14.14s2.1-12.32 2.1-25.76 14.56-56.15 14.56-70.85 8.54-47.75 8.54-60.77Zm-268.55 377.01c-1.5 18.68-14.38 55.82-24.69 76.22s-10.09 11.16-7.77-11.92c2.32-23.09 24.03-106.82 32.46-107.88 3.44-.43 1.5 24.9 0 43.58Zm89.78 10.24c-5.08 23.47-13.49 33.28-14.54 27.15-1.05-6.13 1.93-26.1 4.73-46.06 2.8-19.97 1.23-34.33 7.88-40.46 6.66-6.13 0-16.81 6.66-16.81 0 0 3.33 2.45 3.33 14.01s-2.98 38.71-8.06 62.18Zm90.98 21.64c-.11 1.2-.4 2.51-1.37 3.24-1.06.8-2.53.62-3.83.37-1.63-.31-3.38-.73-4.47-1.99-.37-.43-.66-.97-.66-1.53 0-.59.31-1.14.61-1.65.72-1.23 1.43-2.45 2.15-3.68.18-.32.37-.64.65-.88 1.96-1.96 4.24 1.14 5.49 2.27.39.35.79.72 1.06 1.18.46.79.45 1.76.37 2.67Zm1.09-111.92c1.96 7.63-9.35 34.3-11.59 38.77-2.23 4.46 2.4 2.58.86 13.39-1.54 10.82 2.71 8.41-1.48 29.53-4.19 21.12-13.63 29.87-14.32 18.37-.69-11.5 7.04-59.92 7.73-73.65.69-13.73 12.27-40 13.09-51.16.82-11.16 6.65-23.86 11.98-35.54 5.32-11.67 9.69-10.66 8.88-8.73 0 0-4.25 8.84-5.12 22.79-.87 13.96-2.83 25.08-6.32 32.05-3.49 6.98-5.67 6.54-3.71 14.17Zm15.38-3.34c-.68 3.79-1.11 7.61-1.35 11.45-1 15.61.99 31.21 1.11 46.82.01 1.93 0 3.88-.52 5.74-.1.36-.25.75-.58.92-.47.24-1.02-.09-1.43-.42-3.9-3.19-5.81-8.27-6.45-13.27-.63-5-.17-10.06-.21-15.1-.02-2.26-.14-4.53.15-6.77.26-1.99.83-3.92 1.34-5.86 1.08-4.1 1.85-8.29 2.31-12.51.4-3.63.2-7.36.85-10.96.28-1.56 2.25-10.59 5.07-8.8 2.1 1.33.03 6.98-.29 8.76Zm-.97-12.64c-.37.61-.77 1.24-1.39 1.59-.62.35-1.52.31-1.94-.27-.26-.36-.28-.84-.29-1.29-.07-4.35-.13-8.78 1.17-12.93.98-3.14 2.41-7.05 4.73-9.48 2.23-2.34 3.53-2.08 3.53 1.21.02 7.4-2.03 14.82-5.82 21.17Zm14.82-22.96c-.32.61-.76 1.21-1.41 1.43-1.02.34-2.09-.41-2.71-1.28-1.37-1.92-1.48-4.39-1.36-6.66.14-2.66 1.59-2.52 4.12-2.24.86.1 1.82.24 2.36.93.46.59.47 1.4.42 2.14-.12 1.96-.49 3.94-1.42 5.68Zm-.32-75.03c-1.08-2.17 1.75-20.77 1.75-20.77s4.93-.54 5.11 7.4c.18 7.95-5.78 15.53-6.86 13.36Zm79.4-15.32c-26.7 1.67-22.25 10.01-21.14 37.82 1.11 27.81-5.84 105.13-6.12 127.66-.28 22.53 5.56 20.3 17.24 20.3s13.63-12.24 17.46-25.87 4.51-22.81.89-25.03c-3.62-2.23 4.73-13.35 7.23-28.65 2.5-15.3 14.18-90.55 14.18-90.55-.56-11-3.06-17.37-29.76-15.7Zm165.38 18.48s-18.53 33.87-34.07 60.37-33.67 42.04-36.06 42.04-4.38-9.76-4.58-36.46c-.2-26.7 2.77-28.29 6.56-34.47 0 0 21.93-16.14 38.66-40.04 16.74-23.91 23.51-31.1 23.31-33.28-.2-2.18-6.57-19.31-12.55-30.27s-2.99-21.92-13.15-15.94c-10.16 5.98-22.91 5.98-34.86 5.98s-13.75-.2-17.13 12.15c-3.39 12.35-8.57 29.88-11.95 62.76-3.39 32.87-4.38 32.87-9.36 32.67-4.98-.2-7.97 2.59-3.59 11.16s-.6 14.74-3.39 19.92c-2.79 5.18-.6 11.56 1.39 26.9 1.99 15.34 5.53 21.72-2.72 25.5-8.24 3.79.13 5.38 7.1 9.96 6.97 4.58 9.16 10.36 18.53 10.96 9.36.6 36.86-4.98 52.4-22.31s30.08-54.99 33.67-79.09c3.59-24.11 1.79-28.49 1.79-28.49Zm-63.16-19.73c4.78-11.16 9.96-22.51 13.95-22.11 3.98.4 4.98 14.63 1.2 21.36-3.79 6.73-17.13 21.28-17.13 21.28-5.38 1.2-2.79-9.36 1.99-20.52Zm-83.09-75.3c-12.1 0-16.02-1.73-21.34 6.58-.57.89-.24 2.08.7 2.57 4.14 2.14 15.02 7.4 23.43 8.17 10.61.98 8.94 7.54 11.31 6.56 2.37-.98 11.03-13.13 11.03-17.04s-12.29-6.84-25.14-6.84Z"/></svg>