<svg id="Layer_1" data-name="Layer 1" xmlns="http://www.w3.org/2000/svg" version="1.1" viewBox="0 0 2000.02 2000.02"><defs><style>.cls-1{fill-rule:evenodd;fill:var(--svg-fill-color);stroke-width:0}</style></defs><path class="cls-1" d="M28.01 379.71v1240.6h1944V379.71h-1944Zm831.02 56.39v531.26h-330.4L840.7 436.1h18.33Zm0 759.79v65.29h-503l38.36-65.29h464.64ZM90.33 436.1h468.55L90.33 1258.16V436.1Zm1819.35 1127.82H90.33v-246.34h1819.35v246.34Zm0-807.99c-7.2-30.7-17.79-60.09-31.34-87.76-46.5-74.18-128.83-123.64-222.85-123.96-145.77-.49-264.34 117.28-264.84 263.05-.05 15.06 1.23 29.81 3.61 44.19.06-43.57 25.74-81.12 62.77-98.44 34.73-19.36 74.33-31.2 116.74-33.18 146.48-6.83 270.76 106.39 277.58 252.87 3.21 68.89-20.14 132.86-61.01 182.02 58.14-55.12 100.43-126.8 119.33-207.48v313.94h-324.74c35.7-7.1 69.78-18.74 101.58-34.31 74.18-46.51 123.64-128.83 123.96-222.85.49-145.77-117.28-264.34-263.05-264.84-15.06-.05-29.81 1.24-44.19 3.61 43.57.06 81.12 25.74 98.44 62.77 19.36 34.73 31.2 74.33 33.18 116.74 6.82 146.48-106.4 270.76-252.87 277.58-68.89 3.21-132.86-20.14-182.01-61.01 58.24 61.43 134.97 105.15 221.26 122.3h-333.66V893.48c5.02 50.35 18.95 98.08 40.25 141.56 46.5 74.18 128.83 123.64 222.85 123.96 145.77.49 264.34-117.28 264.84-263.05.05-15.07-1.24-29.81-3.61-44.19-.06 43.57-25.74 81.12-62.77 98.44-34.73 19.36-74.33 31.2-116.74 33.18-146.48 6.82-270.76-106.4-277.58-252.87-3.21-68.89 20.14-132.86 61.01-182.02-70.71 67.04-117.97 158.57-128.24 261v-373.4h373.63c-50.35 5.02-98.08 18.95-141.56 40.25-74.18 46.51-123.64 128.83-123.96 222.85-.49 145.77 117.28 264.34 263.05 264.84 15.06.05 29.81-1.24 44.19-3.61-43.57-.06-81.12-25.74-98.44-62.77-19.36-34.73-31.2-74.34-33.18-116.74-6.83-146.48 106.39-270.76 252.87-277.58 68.89-3.21 132.86 20.14 182.02 61.01-67.04-70.72-158.57-117.98-261-128.24h364.49v319.84Z"/><path class="cls-1" d="M1503.07 943.32c50.65 0 91.71-41.06 91.71-91.71s-41.06-91.71-91.71-91.71-91.71 41.06-91.71 91.71 41.06 91.71 91.71 91.71ZM207.85 1498.94h94.56l13.71 30.01h71.71l-80.15-174.45H200.82l-79.09 174.45h73.11l13.01-30.01Zm47.11-109.55h.7l32.69 75.59h-65.38l31.99-75.59Zm186.48 139.55h70.3v-133.97h71.01v-40.47h-208.8v40.47h67.49v133.97zm335-40.47H666.41V1354.5h-70.3v174.44h180.33v-40.47zm88.69 10.47h94.56l13.71 30.01h71.71l-80.15-174.45H858.1l-79.09 174.45h73.12l13-30.01Zm47.11-109.55h.7l32.69 75.59h-65.38l31.99-75.59Zm206.16 5.58h2.81l74.53 133.97h119.86V1354.5h-70.3l4.22 133.97h-2.81l-75.58-133.97h-118.81v174.44h70.3l-4.22-133.97zm276.46 133.97h70.3v-133.97h71.01v-40.47h-208.81v40.47h67.5v133.97z"/><path style="fill:var(--svg-fill-color);stroke-width:0" d="M1550.93 1354.5h70.3v174.45h-70.3z"/><path class="cls-1" d="M1772.39 1530.34c30.58 0 59.76.23 83.66-12.79 23.9-13.26 24.26-30.47 24.26-49.54v-5.12h-72.41v5.12c0 20.47-14.06 21.86-43.24 21.86-42.18 0-43.94-10-43.94-36.05v-27.21c0-24.89 3.87-33.03 43.94-33.03 23.9 0 40.43 1.16 42.89 16.75v6.74h72.41v-6.74c-1.41-52.34-35.15-57.22-107.56-57.22-77.34 0-124.09 8.37-124.09 66.06v45.12c0 63.73 52.38 66.06 124.09 66.06Z"/></svg>