<svg data-name="Layer 1" xmlns="http://www.w3.org/2000/svg" viewBox="0 0 2000 2000"><path d="m110.32 749.13 68.86 123.1h38.87l70.01-124.07v124.07h73.79V673.47h-99.09l-61.88 110.98-60.58-110.98H36.53v198.76h73.79v-123.1zm1195.71 2.17 124.28 120.93h75.65V673.47h-73.79v113.66l-116.22-113.66h-83.71v198.76h73.79V751.3zM461.64 872.23h146.49v-48.77H461.64v-28.32h141.81v-48.78H461.64v-24.12h144.22v-48.77H387.85v198.76h73.79zm208.51 149.99h141.81v-48.78H670.15v-24.12h144.22v-48.77H596.36v198.76h220.28v-48.77H670.15v-28.32zm-299.05 1.68h125.3v75.41h73.8V900.55h-73.8v70.59H371.1v-70.59h-73.79v198.76h73.79v-75.41zm-254.66 75.41h73.79V955.19h86.19v-54.64H30.03v54.64h86.41v144.12zm429.42 82.77v-54.64h-246.4v54.64h86.42v144.12h73.79v-144.12h86.19zm348.08-54.64h-73.79v198.76h211.99v-56.73h-138.2v-142.03zm232.71 0h-73.79v198.76h211.99v-56.73h-138.2v-142.03zm158.95 0h73.79v198.76h-73.79zm-228.39-178.12v-48.77H839.2v198.76h220.28v-48.77H912.99v-28.32h141.82v-48.78H912.99v-24.12h144.22zm-298.76-73.19c78.4 0 98.81-31.43 98.81-31.43s6.16 13.58 9.07 27.52h47.95V759.81H767.6v39.2h70.22s-9.4 24.43-68.04 24.43c-45.03 0-68.36-20.4-68.36-52.71s21.71-48.51 71.92-48.51 58.32 17.47 60.58 24.12h78.73c0-26.39-18.14-76.61-138.34-76.61S622.36 714.9 622.36 772.82 660.27 876.1 758.43 876.1Zm253.99-35.96h113.08l14.58 31.43h83.59l-103.35-197.95h-102.38L920.12 871.6h77.43l14.89-31.43Zm88.13-50.22h-64.34l31.62-66.74 32.72 66.74Zm-495.46 337.9-97.84 197.95h77.43l14.89-31.43h113.08l14.58 31.43h83.59l-103.35-197.95H605.11Zm18.27 116.3 31.62-66.74 32.72 66.74h-64.34Zm1274.83-116.6v113.66l-116.22-113.66h-83.71v198.76h73.79v-120.93l124.28 120.93H1972v-198.76h-73.79zm-365.63-3.67c-99.3 0-154.74 25.34-154.74 102.62s60.48 103.13 150.63 103.13 150.68-24.99 150.68-103.13-58.83-102.62-146.58-102.62Zm-2.08 151.77c-49.75 0-74.01-17.79-74.01-49.75 0-35.39 30.13-48.53 74.01-48.53s69.97 17.39 69.97 47.93-20.22 50.35-69.97 50.35Zm-1359.05-77.12c-27.19 0-59.27.34-59.27-15.03 0-12.16 12.04-14.86 44.33-14.86 22.97 0 48.97 3.21 48.97 20.6h82.75c0-24.65-4.22-65.01-131.72-65.01-70.25 0-126.31 7.43-126.31 61.81 0 50.66 52.01 61.64 112.13 61.64 50.83 0 68.39 2.36 68.39 17.39s-15.87 19.25-46.61 19.25-53.36-6.59-53.36-27.69H28c0 31.75 6.67 73.63 134.33 73.63 92.37 0 132.9-19.59 132.9-70.25s-42.05-61.47-123.78-61.47Z" style="fill:var(--svg-fill-color);stroke-width:0"/></svg>