<svg data-name="Layer 1" xmlns="http://www.w3.org/2000/svg" viewBox="0 0 2000 2000"><path d="M366.11 980.06c-9.77-4.6-25.19-10.12-37.81-13.21-24.49-6.01-79.86-13.43-106.33-16.2-27.77-2.9-75.93-6.89-95.17-12.84-5.83-1.81-17.72-7.47-17.72-21.27 0-9.82 5.44-18.14 16.18-24.87 17.06-10.69 51.52-17.33 87.43-17.33 42.46-.16 78.42 9.55 101.3 19.78 7.78 3.47 16.88 8.46 24.11 14.37 8.16 6.65 19.61 20.47 23.75 39.75h38.37V843.99h-42.85v12.12c0 3.91-4.04 8.99-11.68 4.79-19.17-10.06-73.39-31.76-139.85-31.85-37.67 0-80.46 7.05-116.82 23.29-33.56 14.97-61.03 39.19-61.03 79.34-.02 36.16 22.96 57.34 22.34 56.75 9.77 9 25.51 24.32 66.65 33.32 18.39 4.02 57.7 10.2 96.84 14.29 38.86 4.1 77.1 7.99 92.67 11.94 12.37 3.15 33.16 7.44 33.16 30.76s-21.9 30.32-25.71 31.85c-3.8 1.5-30.07 13.56-77.3 13.56-34.87 0-76.78-10.49-92.06-15.95-17.61-6.27-36.09-14.56-53.32-35.61-4.29-5.22-11.05-19.57-11.05-33.79H37.47v119.76h47.51v-16.18c0-1.84 2.3-9.42 10.28-5.82 9.92 4.51 39.05 16.11 69.51 22.47 24.97 5.22 41.07 8.97 72.12 8.97 50.65 0 77.87-8.25 96.68-13.62 17.72-5.07 39.62-14.19 57.41-28.37 9.63-7.67 30.76-27.33 30.76-63.02s-18.39-55.52-24.85-61.99c-8.81-8.81-19.57-15.65-30.79-20.91ZM205.86 829.04zm694.53 60c-45.61-41.39-105.27-60.16-179.82-60.16-67.36 0-138.91 23.13-179.43 60.06-32.28 29.43-48.8 69.9-48.8 110.77s15.84 81.56 48.81 111.15c43.63 39.16 109 60.28 179.43 60.28s137.34-20.86 179.82-60.28c31.49-29.22 48.14-71.47 48.14-111.14s-15.69-81.22-48.14-110.67ZM816.83 1089c-24.21 24.09-58.89 37-96.26 37-37.09 0-72.49-13.19-96.42-36.99-22.9-22.78-35.16-55.05-35.16-89.3s12.12-66.64 35.16-89.47c23.91-23.67 59.43-36.77 96.42-36.77s72.37 13.24 96.26 36.77c23.16 22.84 35.25 55.03 35.25 89.47s-11.2 65.36-35.25 89.29Zm474.26-202.99h39.3c18.01 0 21.08 6.95 21.29 23.61l2.15 127L1144.82 848H995.33v38.05h33.29c24.06 0 25.67 13.53 25.67 25.02v177.98c0 10.64.61 25.25-14.72 25.25h-41.03v37.97h175.51v-37.97h-42.92c-17.08 0-17.86-7.81-18.07-24.38l-.05-152.48 240.74 214.85h61.2l-3.24-242.66c.22-17.73 1.38-23.61 19.75-23.61h38.33v-37.99h-178.71v37.99Zm509.16-38v38h25.92c7.32 0 9.62 7.7 6.23 11.77-.56.66-71.96 84.57-72.84 85.41-.9.82-1.46.61-2.12-.29-.67-.88-71.18-85.23-71.18-85.23-4.99-6.16-1.11-11.7 4.74-11.7h25.26v-37.96h-209.57v38.01h37.14c16.19 0 26.85 10.23 32.92 16.84 4.89 5.33 111.67 126.34 114.36 129.85 2.45 3.22 2.56 3.84 2.56 5.29l-.03 60.04c0 1.24-.27 6.94-.82 8.22a13.104 13.104 0 0 1-8.22 7.3c-1.44.44-8.9.66-10.58.66s-37.2-.03-37.2-.03v38h208.49v-38h-39.25c-1.67 0-9.03-.22-10.47-.66-3.69-1.1-6.7-3.77-8.24-7.3-.55-1.28-.82-6.99-.82-8.21v-60.03c0-1.44-.13-3.88 1.41-5.62 2.94-3.34 110.86-126.52 115.65-131.94 10.47-11.84 16.14-14.42 30.06-14.42h38.37v-38h-171.76Z" style="fill:var(--svg-fill-color);stroke-width:0"/></svg>