<svg xmlns="http://www.w3.org/2000/svg" width="140" height="140"><path d="M 20.878 51.079 C 10.42 51.079 1.941 59.557 1.941 70.015 C 1.941 80.474 10.42 88.952 20.878 88.952 C 31.336 88.952 39.816 80.474 39.816 70.015 C 39.816 59.556 31.338 51.079 20.878 51.079 Z M 29.562 78.391 C 29.224 78.947 28.495 79.123 27.939 78.782 C 23.493 76.066 17.895 75.452 11.304 76.957 C 10.668 77.102 10.035 76.704 9.89 76.069 C 9.745 75.433 10.141 74.8 10.778 74.655 C 17.992 73.007 24.18 73.717 29.171 76.767 C 29.727 77.109 29.904 77.835 29.562 78.391 Z M 31.881 73.235 C 31.453 73.93 30.544 74.149 29.85 73.722 C 24.759 70.593 17 69.687 10.979 71.514 C 10.198 71.75 9.374 71.31 9.137 70.53 C 8.901 69.749 9.342 68.926 10.121 68.689 C 16.999 66.602 25.549 67.613 31.394 71.205 C 32.088 71.633 32.307 72.542 31.88 73.235 Z M 32.08 67.865 C 25.976 64.24 15.906 63.907 10.079 65.675 C 9.144 65.959 8.154 65.431 7.871 64.495 C 7.587 63.559 8.115 62.57 9.051 62.286 C 15.74 60.255 26.861 60.648 33.887 64.819 C 34.73 65.318 35.006 66.405 34.507 67.246 C 34.01 68.088 32.919 68.365 32.08 67.865 Z M 135.856 69.686 C 134.608 69.686 133.635 68.683 133.635 67.465 C 133.635 66.247 134.62 65.232 135.869 65.232 C 137.117 65.232 138.089 66.235 138.089 67.452 C 138.089 68.669 137.105 69.686 135.856 69.686 Z M 135.869 65.453 C 134.73 65.453 133.869 66.357 133.869 67.465 C 133.869 68.572 134.725 69.464 135.856 69.464 C 136.987 69.464 137.856 68.561 137.856 67.452 C 137.856 66.343 137 65.453 135.869 65.453 Z M 136.361 67.68 L 136.99 68.56 L 136.458 68.56 L 135.892 67.753 L 135.407 67.753 L 135.407 68.56 L 134.963 68.56 L 134.963 66.229 L 136.002 66.229 C 136.545 66.229 136.902 66.506 136.902 66.972 C 136.904 67.355 136.682 67.588 136.363 67.68 Z M 135.986 66.629 L 135.408 66.629 L 135.408 67.366 L 135.986 67.366 C 136.273 67.366 136.446 67.225 136.446 66.997 C 136.446 66.757 136.273 66.629 135.986 66.629 Z M 53.508 79.338 C 52.413 79.338 51.311 79.202 50.201 78.929 C 49.091 78.656 48.197 78.298 47.519 77.856 L 47.097 74.101 L 47.431 74.101 C 48.091 74.638 48.975 75.085 50.085 75.442 C 51.195 75.799 52.244 75.977 53.232 75.977 C 54.124 75.977 54.858 75.799 55.435 75.442 C 56.012 75.085 56.3 74.581 56.3 73.932 C 56.3 73.339 55.982 72.824 55.348 72.386 C 54.713 71.949 53.94 71.569 53.028 71.25 C 52.117 70.931 51.204 70.567 50.288 70.162 C 49.372 69.758 48.597 69.178 47.962 68.42 C 47.328 67.662 47.01 66.742 47.01 65.661 C 47.01 63.967 47.691 62.619 49.053 61.618 C 50.415 60.615 52.196 60.113 54.395 60.113 C 56.595 60.113 58.224 60.467 59.513 61.172 L 59.876 64.729 L 59.542 64.729 C 58.215 63.882 56.582 63.459 54.643 63.459 C 53.674 63.459 52.889 63.619 52.288 63.938 C 51.687 64.258 51.386 64.696 51.386 65.25 C 51.386 65.619 51.556 65.947 51.895 66.239 C 52.234 66.53 52.678 66.787 53.225 67.008 C 53.773 67.229 54.378 67.455 55.042 67.685 C 55.706 67.916 56.37 68.194 57.034 68.517 C 57.698 68.842 58.304 69.209 58.852 69.618 C 59.4 70.028 59.84 70.564 60.174 71.228 C 60.508 71.892 60.676 72.637 60.676 73.465 C 60.676 75.281 60.007 76.714 58.67 77.763 C 57.332 78.812 55.613 79.336 53.509 79.336 Z M 70.798 65.028 C 72.595 65.028 74.029 65.66 75.1 66.925 C 76.17 68.19 76.706 69.879 76.706 71.993 C 76.706 74.108 76.092 75.947 74.863 77.298 C 73.635 78.648 72.04 79.323 70.08 79.323 C 68.508 79.323 67.325 78.971 66.53 78.266 L 66.53 83.808 L 62.831 84.363 L 62.831 65.393 L 66.218 65.393 L 66.218 67.575 C 66.516 66.888 67.067 66.292 67.871 65.786 C 68.675 65.28 69.651 65.028 70.798 65.028 Z M 69.443 68.185 C 68.72 68.185 68.099 68.338 67.58 68.646 C 67.06 68.953 66.71 69.3 66.53 69.689 L 66.53 75.543 C 67.216 76.113 68.101 76.401 69.185 76.41 C 70.369 76.41 71.295 76.04 71.963 75.3 C 72.631 74.559 72.966 73.556 72.966 72.292 C 72.966 71.027 72.656 70.06 72.038 69.31 C 71.419 68.56 70.554 68.185 69.443 68.185 Z M 90.716 77.297 C 89.374 78.647 87.669 79.322 85.6 79.322 C 83.531 79.322 81.822 78.651 80.472 77.31 C 79.121 75.969 78.446 74.25 78.446 72.154 C 78.446 70.058 79.121 68.38 80.472 67.039 C 81.822 65.698 83.531 65.027 85.6 65.027 C 87.669 65.027 89.374 65.698 90.716 67.039 C 92.057 68.38 92.728 70.088 92.728 72.161 C 92.728 74.235 92.057 75.946 90.716 77.297 Z M 85.601 76.26 C 86.694 76.26 87.563 75.886 88.209 75.136 C 88.855 74.386 89.178 73.392 89.178 72.155 C 89.178 70.917 88.855 69.928 88.209 69.187 C 87.563 68.446 86.694 68.076 85.601 68.076 C 84.508 68.076 83.607 68.447 82.952 69.187 C 82.297 69.928 81.97 70.917 81.97 72.155 C 81.97 73.392 82.297 74.409 82.952 75.15 C 83.607 75.891 84.49 76.26 85.601 76.26 Z M 101.106 79.323 C 99.661 79.323 98.437 78.923 97.434 78.124 C 96.431 77.325 95.93 76.04 95.93 74.269 L 95.93 68.415 L 93.626 68.415 L 93.626 67.86 L 98.667 62.277 L 99.615 62.277 L 99.615 65.394 L 104.412 65.394 L 103.802 68.415 L 99.615 68.415 L 99.615 73.876 C 99.615 75.503 100.383 76.315 101.918 76.315 C 102.804 76.315 103.508 76.121 104.032 75.732 L 104.33 75.732 L 103.775 78.713 C 103.107 79.119 102.217 79.323 101.106 79.323 Z M 106.616 63.117 C 105.93 63.117 105.37 62.927 104.936 62.548 C 104.503 62.168 104.286 61.671 104.286 61.057 C 104.286 60.443 104.505 59.914 104.943 59.526 C 105.381 59.138 105.938 58.944 106.616 58.944 C 107.293 58.944 107.835 59.138 108.269 59.526 C 108.702 59.915 108.919 60.425 108.919 61.057 C 108.919 61.69 108.702 62.168 108.269 62.548 C 107.835 62.927 107.284 63.117 106.616 63.117 Z M 104.787 78.957 L 104.787 65.393 L 108.459 65.393 L 108.459 78.957 Z M 112.356 78.957 L 112.356 68.577 L 109.998 68.577 L 109.848 65.493 L 112.326 65.445 L 112.356 63.997 C 112.356 62.48 112.847 61.253 113.827 60.318 C 114.806 59.383 116.091 58.916 117.681 58.916 C 118.603 58.916 119.289 59.029 119.741 59.255 L 120.27 62.195 L 119.958 62.195 C 119.606 61.97 119.118 61.856 118.495 61.856 C 117.79 61.856 117.206 62.033 116.741 62.385 C 116.276 62.737 116.043 63.284 116.043 64.025 L 116.013 65.393 L 119.808 65.405 L 120.436 68.577 L 116.042 68.577 L 116.042 78.957 L 112.357 78.957 Z" fill="rgb(0,0,0)"></path><path d="M 118.842 65.393 L 122.785 65.393 L 126.118 75.15 L 129.086 65.393 L 132.947 65.393 L 127.704 79.296 C 127.018 81.112 126.243 82.431 125.38 83.252 C 124.517 84.074 123.413 84.485 122.068 84.485 C 121.472 84.485 120.952 84.417 120.509 84.282 L 120.062 81.45 L 120.374 81.45 C 120.636 81.559 120.929 81.617 121.255 81.627 C 122.456 81.627 123.274 80.931 123.708 79.54 L 124.141 78.347 L 118.843 65.393 Z" fill="rgb(0,0,0)"></path></svg>