<svg data-name="Layer 1" xmlns="http://www.w3.org/2000/svg" viewBox="0 0 2000 2000"><path d="M814.97 796.63c-6.18-16.22-14.39-31.62-24.29-45.86-12.1-17.8-26.2-34.28-42.28-48.61-27.1-24.33-59.66-42.05-93.95-54-44.3-15.46-91.08-22.46-137.72-25.98-44.88-3.21-89.98-3.45-134.93-1.41-50.38 2.54-101.01 8.48-149.33 23.57-32.69 10.24-64.19 25.18-91.39 46.17-24.91 19.07-45.84 43.06-62.45 69.63C67.67 777.23 60 796.2 53.81 815.47c-13.77 43.75-20.48 89.41-23.98 135.04-3.82 49.98-1.57 100.33 5.46 149.92 3.84 26.7 9.11 53.24 16.94 79.08 5.5 17.93 12.17 35.61 21.37 52.01 17.86 30.81 41.39 58.56 70.01 79.9 30 22.55 64.93 37.8 100.95 47.84 44.68 12.42 91.02 17.67 137.23 19.98 50.5 2.24 101.19 1.81 151.56-2.8 47.09-4.54 94.32-13.06 138.25-31.13 33.76-13.84 65.09-34.09 90.36-60.53 23.47-24.8 43.23-53.67 54.74-85.98 15.58-42.82 23.09-88.11 27.54-133.32 5.16-52.27 3.89-105.07-2.92-157.11-5.07-37.97-12.57-75.89-26.36-111.74Zm-406.35 368.74c-9.67 26.81-35.47 47.27-64.05 49.38-18.24 1.28-36.99-3.92-51.71-14.81-11.01-8.1-19.41-19.49-24.62-32.07-32.01-77.5-64.03-155-96.05-232.5-6.18-13.6-9.1-28.83-6.99-43.71 3.92-30.67 28.64-57.25 58.91-63.47 17.98-3.74 37.2-.29 53.17 8.64 14.53 8.09 25.77 21.49 32.06 36.8 32.66 79.09 65.37 158.15 98.02 237.24 7.03 17.21 7.82 37.01 1.28 54.5Zm196.32 4.37c-7.77 17.74-22.56 32.26-40.44 39.69-28.86 12.28-65.04 3.4-85.29-20.46-5.46-6.37-9.79-13.69-12.97-21.44-32.57-78.84-65.16-157.68-97.71-236.52-6.75-16.42-7.92-35.23-2.28-52.14 8.39-26.28 32.15-47.07 59.49-51.32 17.67-2.7 36.22 1.21 51.53 10.39 13.54 8.1 23.99 20.89 30.04 35.41l93.75 226.92c2.84 7.03 6.12 13.93 7.85 21.35 4.06 15.9 2.73 33.13-3.99 48.13Zm125.68-185.09c-9.46 27-35.3 47.69-63.98 49.95-20.32 1.52-41.33-5.06-56.69-18.56-8.69-7.64-15.38-17.42-19.83-28.07-6.35-15.42-12.71-30.83-19.07-46.24-3.09-7.64-6.65-15.15-8.35-23.25-3.89-16.46-1.91-34.23 5.62-49.37 9.99-20.56 29.63-36.27 52.07-40.93 17.74-3.7 36.67-.33 52.49 8.33 14.6 7.96 25.98 21.25 32.38 36.51 8.02 19.35 16.02 38.71 24.01 58.07 6.83 16.92 7.64 36.34 1.34 53.55Zm265.81-120.37c10.42-40.34 20.79-80.7 31.23-121.04 10.39 40.35 20.8 80.7 31.21 121.04h39.92c16.81-60.87 33.59-121.74 50.35-182.63-13.53.02-27.07 0-40.6.01-10.15 40.45-20.37 80.89-30.42 121.36-10.17-40.51-20.85-80.9-31.24-121.35-12.82-.02-25.63-.01-38.46-.01-10.4 40.45-21.03 80.85-31.25 121.35-10-40.49-20.25-80.92-30.43-121.35-13.52.01-27.05-.01-40.59 0 16.77 60.88 33.56 121.75 50.35 182.61 13.31.02 26.62.01 39.93.01Zm171.56 0c5.95-15.49 11.87-30.98 17.8-46.47 21.61-.02 43.22-.02 64.83 0 5.94 15.49 11.83 31 17.8 46.47 13.78 0 27.55.01 41.33 0-24.61-60.88-49.2-121.76-73.84-182.62h-35.43c-24.6 60.87-49.22 121.74-73.83 182.62 13.78 0 27.55.01 41.33 0Zm50.21-132.63c5.86 17.24 12.79 34.09 19.06 51.18-12.71-.02-25.42.01-38.12-.02 6.35-17.05 13.24-33.9 19.06-51.16Zm238.41 33.18c9.9-15.21 11.26-35.59 4.1-52.18-7.15-16.13-23.81-25.83-40.61-29.01-14.52-3.05-29.44-1.68-44.16-1.99-18.27 0-36.56-.01-54.83 0-.01 60.87-.01 121.75 0 182.62h38.57c.01-24.01 0-48.01.01-72.02 8.12 0 16.23-.02 24.36.01 13.69 24 27.37 48.01 41.08 72.01 14.73 0 29.47.01 44.21-.01-14.48-25.44-29.06-50.82-43.51-76.29 12.03-4.8 23.52-12.19 30.8-23.15Zm-38.12-11.48c-7.38 4.63-16.44 4.43-24.82 4.35-11.33-.01-22.66 0-33.99 0-.01-13.83-.01-27.65 0-41.48 14.28.02 28.55-.1 42.84.06 8.16.31 17.7 2.7 21.79 10.54 4.21 8.64 2.88 21.13-5.82 26.53Zm108.78-8.49c25.67 39.94 51.81 79.61 77.69 119.43 12.64-.02 25.29 0 37.93-.01.02-60.87.02-121.75 0-182.62-12.53 0-25.07-.01-37.59 0 .01 39.57-.06 79.12.03 118.69-25.63-39.73-51.84-79.09-77.69-118.68-12.64-.02-25.29-.01-37.93-.01-.02 60.87-.02 121.75 0 182.62 12.52 0 25.06.01 37.59 0-.01-39.81.06-79.62-.03-119.42Zm273.28 84.32c-29.93-.02-59.86.01-89.78-.02-.01-13.91-.01-27.83 0-41.75 27.29-.01 54.58.01 81.86 0 0-11.66.01-23.31 0-34.96-27.29-.03-54.58 0-81.86-.02-.01-11.88-.01-23.76 0-35.64 29.64-.03 59.29 0 88.95-.02v-35.1H1672.2c-.01 60.87-.01 121.75 0 182.62h128.36v-35.1Zm127.9-41.16c11.33-4.62 22.25-11.32 29.54-21.36 7.13-9.6 10.15-21.76 9.79-33.6-.1-11.77-4.23-23.66-12.33-32.33-10.25-11.09-25.21-16.51-39.92-18.27-12.58-1.43-25.27-.57-37.89-.8h-53.91c-.01 60.87-.01 121.75 0 182.62 12.86 0 25.71.01 38.57 0 .02-24.01-.01-48.01.01-72.03 8.13.01 16.25-.01 24.39.02 13.68 24 27.39 48 41.07 72.01 14.74-.01 29.49.01 44.24 0-14.52-25.42-29.02-50.85-43.55-76.26Zm-7.15-34.76c-7.66 4.88-17.14 4.49-25.86 4.44h-33.14c-.01-13.83-.01-27.65 0-41.49 14.39.04 28.78-.11 43.16.08 8.14.32 17.61 2.85 21.59 10.7 4.04 8.59 2.76 20.84-5.76 26.27Zm-488.61 232.61c-15.45-6.53-32.55-7.4-48.07-13.71-5.04-2.06-10.1-4.72-13.48-9.13-3.71-4.86-4.23-12.43-.01-17.16 3.97-4.5 10.04-6.33 15.78-7.28 11.53-1.79 24.29-.13 33.6 7.39 7.76 6.14 12.31 15.33 15.15 24.62 10.34-5.93 20.64-11.91 30.96-17.86-5.1-15.14-14.22-29.49-27.92-38.19-17.62-11.29-39.78-12.96-60-9.68-14.38 2.53-28.65 9.06-37.85 20.74-14.1 17.68-12.69 45.35 2.43 62 7.72 8.76 18.21 14.63 29.12 18.47 10.72 3.9 22.2 4.95 33.06 8.42 7.27 2.31 14.88 4.96 20.33 10.57 6.51 6.66 6.14 18.45-.43 24.95-6.74 6.83-16.89 8.55-26.09 8.53-10.31-.02-21.1-3.13-28.36-10.79-8.51-8.81-11.79-21.12-13.8-32.86-11.4 5.83-22.83 11.62-34.24 17.42 3.32 18.15 12.69 35.69 27.98 46.48 16.72 12.05 38.2 15.53 58.39 13.89 18.27-1.45 36.74-9.17 48.27-23.85 13.18-16.21 15.26-40.34 5.56-58.75-6.41-11.77-18.21-19.43-30.39-24.21Zm289.96 56.32c-10.17-7.3-20.33-14.62-30.51-21.9-6.06 11.8-14.38 22.98-26.03 29.73-20.23 11.8-48.3 8.53-64.69-8.43-15.8-15.93-19.93-40.79-14.13-61.95 4.45-16.76 16.99-31.52 33.59-37.12 16.02-5.38 35.07-4.02 48.93 6.19 9.23 6.81 15.46 16.77 20.2 27.04 10.45-7.5 20.87-15.03 31.33-22.53-5.23-12.42-13.58-23.57-24.3-31.76-15.8-12.26-35.96-18-55.8-18.07-19.05-.23-38.33 4.67-54.38 15.1-15.03 9.7-26.92 24.13-33.67 40.7-7.82 18.88-9.21 40.05-5.56 60.06 3.63 19.74 13.51 38.52 28.78 51.72 15.39 13.57 35.68 20.84 56.04 21.89 18.25.97 37.4-1.5 53.27-11.15 15.74-9.44 27.02-24.43 36.94-39.53Zm-594.73 47.31c.01-60.87.01-121.74 0-182.62h-39.53c-18.33 45.52-36.51 91.08-54.83 136.59-18.26-45.53-36.51-91.07-54.79-136.58-13.19-.01-26.38-.01-39.57 0-.01 60.87-.01 121.74 0 182.61 12.53.01 25.06.01 37.59 0 .01-31.46.02-62.91 0-94.38 1.58 4.57 2.8 9.28 4.67 13.77 11.49 26.85 22.92 53.75 34.43 80.62 11.83-.09 23.68.16 35.51-.12 8.37-20.16 17.1-40.17 25.61-60.27 4.65-11.23 10.07-22.2 13.28-33.99.06 31.46 0 62.91.02 94.38 12.53.01 25.07.01 37.6 0Zm27.34-182.61c-.01 36.39 0 72.79 0 109.18-.56 15.19 2.28 30.8 10.12 43.96 9.35 16.12 26.17 27.02 44.22 30.83 18.94 3.94 39.33 2.88 57.13-5.08 17.44-7.68 30.8-23.5 35.84-41.84 4.24-13.7 3.13-28.15 3.26-42.29-.01-31.58 0-63.18-.01-94.76-12.86-.01-25.71-.01-38.57 0-.02 36.77 0 73.55-.01 110.32-.08 10.89-2.82 22.54-10.81 30.42-7.64 7.59-18.98 10.02-29.42 9.26-8.74-.53-17.6-3.81-23.54-10.44-6.88-7.56-9.46-18.05-9.64-28.05-.01-37.17.01-74.34 0-111.52-12.87 0-25.72 0-38.58.01Zm334.72 182.61c12.86.01 25.71 0 38.57 0 .02-60.87.02-121.74 0-182.61-12.86-.01-25.71-.01-38.57 0v182.61Zm-487.22 157.79c18.94.01 37.89-.01 56.83.01-2.33 10.91-8.24 21.45-17.77 27.6-10.34 6.74-23.28 8.3-35.33 6.88-13.93-1.7-26.87-9.75-34.59-21.46-9.3-13.9-11.89-31.46-9.57-47.8 2.24-16.01 10.69-31.53 24.37-40.52 15.28-10.28 35.64-11.27 52.54-4.61 13.34 5.21 23.35 16.53 29.35 29.29 9.76-7.12 19.54-14.2 29.3-21.33-7.82-16.44-21.57-29.8-38.02-37.49-19.33-9.08-41.61-11.28-62.51-7.33-21.89 4.15-42.23 16.4-55.7 34.2-21.74 28.26-24.85 68.5-10.55 100.75 6.61 14.85 17.24 27.93 30.61 37.2 19.18 13.33 43.8 18.44 66.73 14.19 14.81-2.71 28.48-11.02 37.55-23.06 1.99 6.97 4.07 13.92 6.07 20.9 8.86.02 17.72.01 26.58.01v-99.91h-95.88c-.01 10.82-.01 21.65 0 32.47Zm414.68-108.52c-18.66-9.47-40.44-12.16-60.98-8.63-22.01 3.7-42.6 15.65-56.33 33.3-25.9 32.77-26.82 82.56-2.68 116.53 8.9 12.57 21.08 22.78 35.04 29.32 20.52 9.67 44.44 11.5 66.37 5.91 19.46-4.96 37.25-16.5 49.41-32.52 24.41-31.7 25.87-78.77 4.29-112.3-8.6-13.43-20.87-24.47-35.11-31.62Zm9.07 102.49c-3.81 16.73-15.79 31.73-32.17 37.49-20.57 7.47-46.22 3.32-60.95-13.66-15.09-17.36-17.46-43.04-10.7-64.4 5.57-18.05 21.66-32.25 40.42-35.06 18.05-3.23 38.27 1.71 50.75 15.71 14.4 15.98 17.42 39.54 12.66 59.92Zm-162.52-35.13c5.6-15.16 5.27-33.13-2.99-47.28-7.56-12.93-21.52-20.82-35.79-24.1-13.18-3.33-26.85-2.38-40.3-2.51-20.43.01-40.85 0-61.29.01-.01 60.83 0 121.65 0 182.48 12.91 0 25.81.01 38.72-.01-.01-23.96 0-47.9-.01-71.86 8.1-.02 16.2-.02 24.3 0 13.62 23.97 27.35 47.88 40.96 71.86 14.74.02 29.49.01 44.24.01-14.48-25.41-29-50.78-43.47-76.18 15.23-5.95 29.67-16.67 35.63-32.42Zm-41.31-3.38c-5.6 4.43-13.04 5.37-19.95 5.53-13.47.03-26.92.01-40.39.01-.01-13.83-.01-27.65 0-41.48 14.53.04 29.06-.11 43.59.07 8.1.37 17.53 3.12 21.25 11.07 3.49 8.04 2.68 18.98-4.5 24.8Zm415.65 24.26c-.01-31.58 0-63.17-.01-94.75-12.86-.01-25.71-.01-38.57 0-.01 34.54-.01 69.06 0 103.6.11 9.82-.32 20.11-4.98 28.98-3.94 7.88-11.41 13.77-19.93 15.94-9.7 2.46-20.37 2.08-29.53-2.12-7.67-3.51-13.4-10.46-16.14-18.35-3.59-9.58-2.94-19.95-2.96-29.99-.01-32.69 0-65.38-.01-98.06-12.86-.01-25.71-.01-38.57 0-.01 37.52 0 75.05-.01 112.57-.09 17.13 4.57 34.77 15.59 48.18 11.17 13.94 28.34 22.08 45.85 24.39 20.16 2.65 41.82-.03 59.14-11.31 13.79-8.85 23.51-23.31 27.44-39.14 3.51-13.02 2.55-26.6 2.7-39.93Zm113.98-94.73c-28.93-.07-57.86-.01-86.78-.02-.01 60.83-.01 121.65 0 182.48 12.9 0 25.81 0 38.71-.01V1253c14.88-.04 29.76.01 44.64-.03 11.88-.09 23.91-1.81 34.88-6.57 14.83-6.14 26.87-18.91 31.27-34.45 5.77-20.25 2.74-44.3-12.16-59.99-12.89-13.72-32.23-19.22-50.57-19.67Zm26.15 66.92c-1.19 6.11-5.18 11.57-10.68 14.48-6.08 3.3-13.14 4.2-19.96 4.21-14.53-.02-29.05 0-43.57-.01-.01-16.89-.01-33.77 0-50.65 14.52 0 29.05-.02 43.59 0 8.59.11 17.97 1.49 24.52 7.56 6.54 6.13 7.83 16 6.11 24.41Z" style="fill:var(--svg-fill-color);stroke-width:0"/></svg>